<svg width="58" height="57" viewBox="0 0 58 57" fill="none" xmlns="http://www.w3.org/2000/svg">
<g id="logout">
<path id="Vector" fill-rule="evenodd" clip-rule="evenodd" d="M8.6998 9.04102C7.93068 9.04102 7.19305 9.33514 6.64919 9.85868C6.10534 10.3822 5.7998 11.0923 5.7998 11.8327V45.3327C5.7998 46.0731 6.10534 46.7831 6.64919 47.3067C7.19305 47.8302 7.93068 48.1243 8.6998 48.1243C9.46893 48.1243 10.2066 47.8302 10.7504 47.3067C11.2943 46.7831 11.5998 46.0731 11.5998 45.3327V11.8327C11.5998 11.0923 11.2943 10.3822 10.7504 9.85868C10.2066 9.33514 9.46893 9.04102 8.6998 9.04102ZM38.5495 34.984C38.0212 35.5105 37.7289 36.2157 37.7355 36.9476C37.7422 37.6796 38.0471 38.3798 38.5848 38.8974C39.1225 39.415 39.8499 39.7086 40.6102 39.7149C41.3706 39.7213 42.1032 39.4399 42.6501 38.9314L51.3501 30.5564C51.8938 30.0329 52.1992 29.3229 52.1992 28.5827C52.1992 27.8424 51.8938 27.1325 51.3501 26.609L42.6501 18.234C42.3826 17.9673 42.0626 17.7547 41.7088 17.6084C41.355 17.462 40.9744 17.385 40.5894 17.3818C40.2043 17.3786 39.8224 17.4492 39.466 17.5896C39.1096 17.73 38.7858 17.9373 38.5136 18.1994C38.2413 18.4615 38.0259 18.7732 37.8801 19.1163C37.7343 19.4594 37.6609 19.827 37.6643 20.1976C37.6676 20.5683 37.7476 20.9346 37.8996 21.2752C38.0516 21.6158 38.2725 21.9239 38.5495 22.1814L42.2992 25.791H20.2998C19.5307 25.791 18.7931 26.0851 18.2492 26.6087C17.7053 27.1322 17.3998 27.8423 17.3998 28.5827C17.3998 29.3231 17.7053 30.0331 18.2492 30.5567C18.7931 31.0802 19.5307 31.3743 20.2998 31.3743H42.2992L38.5495 34.984Z" fill="#3F3F46"/>
</g>
</svg>
